<svg xmlns="http://www.w3.org/2000/svg" viewBox="0 0 446.98 367.35"><defs><style>.cls-1{fill:#fdedee;}.cls-2{fill:#352c38;}.cls-3{fill:#6f96bd;}.cls-10,.cls-4,.cls-9{fill:none;stroke-miterlimit:10;}.cls-4,.cls-9{stroke:#965450;}.cls-4{stroke-width:2.08px;}.cls-5{fill:#ffac9d;}.cls-6{fill:#ef998e;}.cls-7{fill:#1a141c;}.cls-8{fill:#fc6a5a;}.cls-9{stroke-width:1.04px;}.cls-10{stroke:#fc6a5a;stroke-width:1.88px;}.cls-11{fill:#765e69;}</style></defs><g id="BACKGROUND"><path class="cls-1" d="M122.83,418.11H34.6S.8,271.68,99.36,246.34,121,109.34,226.09,64.23,464.51,102.72,473.9,196.59s-16,217.77-16,217.77Z" transform="translate(-29 -51.65)"/></g><g id="OBJECTS"><path class="cls-2" d="M298.85,240.12s-15.59-24.42-39.49-22.86-14.54,27-40.52,18.7-54.51,19.31-41.56,50.91,31.17,28.06,26.49,41.57c-7.09,20.51-20.26,22.34,7.28,46.23S304,370,309.76,331,298.85,240.12,298.85,240.12Z" transform="translate(-29 -51.65)"/><path class="cls-2" d="M297.68,243.24s-.52-1-1.66-2.73a66,66,0,0,0-5.43-7.18A54.31,54.31,0,0,0,280.27,224a37.19,37.19,0,0,0-16.56-6.45,27.12,27.12,0,0,0-10.08.51,19,19,0,0,0-9,5.57c-1.29,1.34-2.49,2.84-3.75,4.35a27.31,27.31,0,0,1-4.32,4.35,13.26,13.26,0,0,1-2.78,1.63,12.48,12.48,0,0,1-3.17.84,18.28,18.28,0,0,1-6.47-.48,38.53,38.53,0,0,1-6.08-2.07c-1-.4-1.93-.76-2.92-1.06s-2-.56-3-.77a31.53,31.53,0,0,0-12.54.09,36.27,36.27,0,0,0-26.87,25.3,37.11,37.11,0,0,0-1.31,12.74,41.74,41.74,0,0,0,.93,6.31c.23,1,.51,2.06.8,3.07s.64,2.05,1,3.05a90.8,90.8,0,0,0,4.79,11.6A93.76,93.76,0,0,0,185,303.06c2.22,3.3,4.61,6.39,6.89,9.47a51.41,51.41,0,0,1,3.2,4.76,15.68,15.68,0,0,1,2,5.33,11,11,0,0,1-.65,5.53,25.25,25.25,0,0,1-1.1,2.4q-.59,1.15-1.23,2.25a48.83,48.83,0,0,1-5.73,7.77c-1,1.14-2,2.22-2.88,3.34a8.72,8.72,0,0,0-1.81,3.52,6.87,6.87,0,0,0,.36,3.68,17.8,17.8,0,0,0,1.57,3.22,52.66,52.66,0,0,0,3.72,5.21c2.44,3,4.47,5.3,5.86,6.85l2.15,2.37-2.23-2.29c-1.44-1.51-3.57-3.7-6.09-6.68a51.66,51.66,0,0,1-3.9-5.16,19,19,0,0,1-1.71-3.3,7.57,7.57,0,0,1-.49-4,9.49,9.49,0,0,1,1.87-3.92c.87-1.18,1.85-2.29,2.82-3.46a48.82,48.82,0,0,0,5.48-7.69c.4-.72.79-1.46,1.15-2.21a24.29,24.29,0,0,0,1-2.29,9.67,9.67,0,0,0,.5-4.89,14.26,14.26,0,0,0-1.93-4.82,50.82,50.82,0,0,0-3.18-4.57c-2.31-3-4.78-6.1-7.08-9.42a87.28,87.28,0,0,1-6.35-10.63,93,93,0,0,1-4.95-11.81c-.35-1-.68-2.07-1-3.1s-.6-2.12-.86-3.2a42.55,42.55,0,0,1-1-6.6,38.89,38.89,0,0,1,1.31-13.42,37.6,37.6,0,0,1,28.41-26.64,33.28,33.28,0,0,1,13.3,0c1.08.23,2.15.5,3.19.83s2.1.74,3.06,1.14a37.41,37.41,0,0,0,5.81,2,16.59,16.59,0,0,0,5.83.48,10.89,10.89,0,0,0,5.16-2.08c3-2.28,5.23-5.65,8-8.4a23,23,0,0,1,4.54-3.64,19.29,19.29,0,0,1,5.23-2.16,28.5,28.5,0,0,1,10.57-.38,35,35,0,0,1,9.32,2.62,42,42,0,0,1,7.54,4.36,55.08,55.08,0,0,1,10.18,9.7,61.61,61.61,0,0,1,5.22,7.38C297.2,242.24,297.68,243.24,297.68,243.24Z" transform="translate(-29 -51.65)"/><path class="cls-2" d="M290.53,246.65s0-.7-.09-2-.24-3.26-.6-5.71A68.09,68.09,0,0,0,288,230.2a49.61,49.61,0,0,0-4.31-10.67,30.74,30.74,0,0,0-8.8-10.17,26.31,26.31,0,0,0-14.11-4.77,49.55,49.55,0,0,0-8,.31,24.39,24.39,0,0,0-4,.74,8.85,8.85,0,0,0-1.82.72,1.92,1.92,0,0,0-1.06,1.14,1.72,1.72,0,0,0,.69,1.37,6.7,6.7,0,0,0,1.61,1.12A13.28,13.28,0,0,0,252,211.3a7.53,7.53,0,0,0,3.93-.18,2.3,2.3,0,0,0,1.29-1.13,3.08,3.08,0,0,0,.21-1.8,11.61,11.61,0,0,0-1.47-3.8,32.68,32.68,0,0,0-2.34-3.49,19.8,19.8,0,0,0-6.18-5.47,16.49,16.49,0,0,0-7.85-2,24.42,24.42,0,0,0-7.89,1.38,50.92,50.92,0,0,0-13.44,7.3,89.18,89.18,0,0,0-10.46,9,25.76,25.76,0,0,1-9.26,7,8.52,8.52,0,0,1-4.81.58,6.44,6.44,0,0,1-3.49-2.14,14.14,14.14,0,0,1-2.59-5.16c-.37-1.28-.51-2-.51-2s.14.7.53,2a14,14,0,0,0,2.62,5.11,6.23,6.23,0,0,0,3.46,2.08,8.27,8.27,0,0,0,4.73-.61,25.3,25.3,0,0,0,9.13-7.07A90.7,90.7,0,0,1,218,201.81a51.68,51.68,0,0,1,13.51-7.54,25.05,25.05,0,0,1,8.08-1.5,17.22,17.22,0,0,1,8.22,1.95,20.56,20.56,0,0,1,6.51,5.62,32.86,32.86,0,0,1,2.46,3.58,12.08,12.08,0,0,1,1.64,4.13,4.15,4.15,0,0,1-.27,2.39,3.33,3.33,0,0,1-1.82,1.65,8.6,8.6,0,0,1-4.51.26,14.41,14.41,0,0,1-4.18-1.4,8.27,8.27,0,0,1-1.86-1.29,4,4,0,0,1-.75-1,2.2,2.2,0,0,1-.27-1.36,2.93,2.93,0,0,1,1.6-1.93,10,10,0,0,1,2.06-.84,26.61,26.61,0,0,1,4.17-.79,51.86,51.86,0,0,1,8.24-.35,27.53,27.53,0,0,1,14.76,4.93,32,32,0,0,1,9.21,10.54,51,51,0,0,1,4.48,10.94,70.74,70.74,0,0,1,1.93,8.89c.38,2.49.55,4.47.64,5.82s.1,2.09.1,2.09Z" transform="translate(-29 -51.65)"/><path class="cls-2" d="M248.45,148.79s-.17.4-.42,1.19a32.74,32.74,0,0,0-.91,3.44,26.39,26.39,0,0,0-.57,5.49,15.14,15.14,0,0,0,1.56,6.88,11.56,11.56,0,0,0,6.16,5.39c1.38.54,2.89.92,4.41,1.36l4.68,1.31a54.29,54.29,0,0,1,9.6,3.5,10.16,10.16,0,0,1,4.08,3.53,5.7,5.7,0,0,1,.77,2.73,8.52,8.52,0,0,1-.48,2.76,18.75,18.75,0,0,1-2.63,4.72l-.77,1a10.41,10.41,0,0,0-.71,1.07,6.27,6.27,0,0,0-.55,1.06c-.08.19-.17.37-.23.55l-.15.56a3.9,3.9,0,0,0,.13,2.17,6.88,6.88,0,0,0,1.22,1.93,46.14,46.14,0,0,0,3.56,3.41c1.22,1.12,2.41,2.27,3.5,3.47a33.23,33.23,0,0,1,2.91,3.79,30.24,30.24,0,0,1,3.59,8,38.25,38.25,0,0,1,1.33,7.25c.12,1.1.15,2.12.18,3.07s0,1.81,0,2.59c0,1.57-.11,2.8-.16,3.63l-.08,1.29-2.48-.26.11-1.23c.07-.81.21-2,.25-3.49,0-.76.08-1.59.05-2.49s0-1.89-.1-2.93a35.58,35.58,0,0,0-1.07-6.89,28.41,28.41,0,0,0-3.16-7.56,31.84,31.84,0,0,0-2.66-3.64,46.07,46.07,0,0,0-3.3-3.44,47.4,47.4,0,0,1-3.58-3.63,8.34,8.34,0,0,1-1.42-2.41,5.15,5.15,0,0,1-.1-2.91l.2-.69c.08-.23.19-.43.28-.65a9.06,9.06,0,0,1,.68-1.22,10.51,10.51,0,0,1,.78-1.09l.8-1.05a17.66,17.66,0,0,0,2.6-4.36,7.8,7.8,0,0,0,.47-2.4,4.8,4.8,0,0,0-.61-2.28,9.09,9.09,0,0,0-3.67-3.26,52.12,52.12,0,0,0-9.38-3.61l-4.64-1.4c-1.52-.46-3-.87-4.44-1.46a12,12,0,0,1-6.27-5.68,15.35,15.35,0,0,1-1.46-7,26.49,26.49,0,0,1,.67-5.51,31.8,31.8,0,0,1,1-3.43C248.28,149.19,248.45,148.79,248.45,148.79Z" transform="translate(-29 -51.65)"/><path class="cls-3" d="M271.83,337.27s-17.14-9.87-32.21,7.27-52.47,17.67-45.2,45.72S427.21,422.1,441.72,410c18.7-15.58-27.54-99.23-58.71-97.15S271.83,337.27,271.83,337.27Z" transform="translate(-29 -51.65)"/><line class="cls-4" x1="233.44" y1="261.45" x2="217.11" y2="257"/><path class="cls-5" d="M285.14,260.09s-39,8.3-26.81,59.51,45.48,57.46,62,45.44c13-9.5,24.72-32.07,15.79-67.65C327.88,264.5,307.37,257.69,285.14,260.09Z" transform="translate(-29 -51.65)"/><path class="cls-6" d="M281.56,361.93c13.6,10.92,29.08,10.16,38.79,3.11,8.49-6.18,16.39-17.9,18.42-35.14C328.09,351.41,304.82,364.25,281.56,361.93Z" transform="translate(-29 -51.65)"/><path class="cls-2" d="M281.7,266.61s4.16,31.17,27.54,33.77,27-.52,26.49,17.15-15.58,49.87,9.36,50.39,15.06-55.07,37.92-55.07,56.11,56.63,56.11,56.63,27-16.63,9.35-46.76c-10.15-17.32-28.57-4.15-28.57-23.9s-19.22-1.55-14.55-15.06,29.09-38.45,4.16-58.71-41.56,19.22-51.44.52-31.4-27-46.75-18.7C298.85,213.62,277.55,230.25,281.7,266.61Z" transform="translate(-29 -51.65)"/><path class="cls-2" d="M446.06,311.66l-.26-.84a24,24,0,0,0-.88-2.42,13.8,13.8,0,0,0-2.12-3.51,6.67,6.67,0,0,0-4.79-2.34,28.37,28.37,0,0,0-3.29.07,7.94,7.94,0,0,1-3.71-.46,5.45,5.45,0,0,1-2.71-3,17.1,17.1,0,0,1-1.09-4.19c-.42-2.9-.46-6.16-2.24-8.73a5,5,0,0,0-3.88-2.18,17.91,17.91,0,0,0-5.08.58,13.25,13.25,0,0,1-2.85.34,2.8,2.8,0,0,1-1.64-.53,2.55,2.55,0,0,1-.89-1.58,8.55,8.55,0,0,1,.19-3.05c.1-.46.21-1,.35-1.45s.25-.93.42-1.4c1.28-3.79,3.05-7.39,4.73-11.16A101.81,101.81,0,0,0,421,254a38.65,38.65,0,0,0,2-12.76,22.77,22.77,0,0,0-4.08-12.36,32.67,32.67,0,0,0-10.07-9.11,11.3,11.3,0,0,0-1.5-.84c-.51-.25-1-.53-1.52-.76a24.68,24.68,0,0,0-3.22-1.15,18.72,18.72,0,0,0-6.74-.68c-4.57.37-8.87,2.44-12.81,5-2,1.28-3.93,2.69-5.9,4.08a41.15,41.15,0,0,1-6.29,3.86,10.57,10.57,0,0,1-3.8,1,6.74,6.74,0,0,1-4-1l-.45-.25-.39-.31-.77-.62c-.46-.47-.89-.95-1.31-1.43l-2.07-3a40.75,40.75,0,0,0-21.36-16A32.84,32.84,0,0,0,324,206.47a26.15,26.15,0,0,0-11.6,3.9A59,59,0,0,0,295.66,226a22.76,22.76,0,0,0-1.47,2.2l-1.37,2.2c-.76,1.53-1.58,3-2.24,4.47l-.92,2.23a18.86,18.86,0,0,0-.83,2.19c-.43,1.48-.95,2.9-1.29,4.31s-.6,2.8-.88,4.13-.33,2.65-.5,3.91c-.06.62-.16,1.24-.2,1.84s0,1.2,0,1.77c0,1.16-.07,2.27-.1,3.31,0,2.1.21,4,.27,5.6a18.36,18.36,0,0,0,.23,2.25c.1.68.18,1.31.26,1.86.31,2.24.47,3.43.47,3.43s-.2-1.19-.58-3.41c-.1-.56-.2-1.18-.32-1.86a15.94,15.94,0,0,1-.3-2.25c-.13-1.63-.35-3.5-.44-5.61,0-1,0-2.17,0-3.33,0-.59,0-1.18,0-1.79s.11-1.23.16-1.87c.13-1.26.22-2.59.41-3.95s.52-2.76.79-4.21a51.26,51.26,0,0,1,7.91-18.09,60.75,60.75,0,0,1,16.83-16.26,27.82,27.82,0,0,1,12.24-4.32,33.71,33.71,0,0,1,13.48,1.34,42.6,42.6,0,0,1,22.42,16.59l2,2.85c.36.41.73.82,1.1,1.2l.62.49.31.25.33.18c1.75,1.09,3.93.77,6-.18A39,39,0,0,0,376,223.8c1.95-1.39,3.9-2.83,5.95-4.15,4.08-2.63,8.72-4.88,13.78-5.27a20.43,20.43,0,0,1,7.43.79,25,25,0,0,1,3.49,1.26c.56.26,1.11.56,1.67.84a13.28,13.28,0,0,1,1.58.9,34.53,34.53,0,0,1,10.58,9.69,24.63,24.63,0,0,1,4.34,13.36,39.35,39.35,0,0,1-2.2,13.34,104.32,104.32,0,0,1-4.88,11.84c-1.74,3.74-3.57,7.35-4.83,10.93-.16.43-.3.9-.44,1.36s-.23.88-.34,1.35a7.53,7.53,0,0,0-.22,2.58c.09,1.55,2.25,1.14,3.93.83a18.84,18.84,0,0,1,5.41-.51,6.36,6.36,0,0,1,2.64.82,6,6,0,0,1,1.94,1.87,11.69,11.69,0,0,1,1.69,4.67c.27,1.57.32,3.08.5,4.52a16.13,16.13,0,0,0,.95,4,4.84,4.84,0,0,0,2.33,2.79,7.67,7.67,0,0,0,3.45.49,28.56,28.56,0,0,1,3.34,0A7.17,7.17,0,0,1,441,303a6.83,6.83,0,0,1,2,1.72,14.08,14.08,0,0,1,2,3.63c.39,1.06.66,1.89.8,2.45Z" transform="translate(-29 -51.65)"/><path class="cls-2" d="M293.65,283.24a63.27,63.27,0,0,1-2.66-6.66,99.47,99.47,0,0,1-4.49-18.37,88.48,88.48,0,0,1,0-26.77,74.57,74.57,0,0,1,11-28.65,69.71,69.71,0,0,1,9.74-12.31,34.39,34.39,0,0,1,6.13-4.78,16.1,16.1,0,0,1,7.29-2.45,8.31,8.31,0,0,1,3.86.67,5.5,5.5,0,0,1,2.81,2.75,5,5,0,0,1,.11,3.86,6.82,6.82,0,0,1-2.17,2.95,5.24,5.24,0,0,1-.71.53l-.36.25-.09.06-.07.05-.05,0-.18.1-.73.39-.83.34a5.19,5.19,0,0,1-1.76.33,4.22,4.22,0,0,1-.93-.11,3,3,0,0,1-.86-.42,3.09,3.09,0,0,1-1.1-1.47,5.23,5.23,0,0,1-.25-1.68,8.24,8.24,0,0,1,.67-3.08,14.38,14.38,0,0,1,7.69-7.42,21.42,21.42,0,0,1,8.08-1.7,29.17,29.17,0,0,1,5.29.37l1.84.33-1.86-.24a31,31,0,0,0-5.26-.16A20.89,20.89,0,0,0,326,181.9a14,14,0,0,0-7.12,7.22,7.39,7.39,0,0,0-.54,2.74,2.71,2.71,0,0,0,1,2.33,2.84,2.84,0,0,0,2.61,0l.68-.29.72-.41a9,9,0,0,0,1.25-.9,5.7,5.7,0,0,0,1.77-2.5,3.75,3.75,0,0,0-.13-2.92,4.36,4.36,0,0,0-2.2-2.07,7,7,0,0,0-3.24-.53,14.59,14.59,0,0,0-6.64,2.31,32.29,32.29,0,0,0-5.83,4.61,68.81,68.81,0,0,0-9.44,12.08,73.56,73.56,0,0,0-11,28.06,91.07,91.07,0,0,0-.51,26.43,108,108,0,0,0,3.91,18.4C292.61,280.84,293.65,283.24,293.65,283.24Z" transform="translate(-29 -51.65)"/><path class="cls-2" d="M284.82,254.66s0-.66.07-1.9.17-3.06.47-5.36.72-5.1,1.4-8.27a73.55,73.55,0,0,1,3.07-10.45,60.23,60.23,0,0,1,5.8-11.58,40.28,40.28,0,0,1,9.88-10.64,37.11,37.11,0,0,1,14.19-6.4,49.8,49.8,0,0,1,16-.68l4,.59c1.31.26,2.61.58,3.92.87,2.59.56,5.11,1.28,7.65,1.86,5,1.19,10.06,2.15,14.93,2.88A137.2,137.2,0,0,0,380.36,207a73.27,73.27,0,0,0,12.68-.48,43.66,43.66,0,0,0,5.51-1.1c.88-.2,1.68-.52,2.49-.77a21.57,21.57,0,0,0,2.22-1,9.44,9.44,0,0,0,3.38-2.69,3.31,3.31,0,0,0,.44-3.38,5.67,5.67,0,0,0-2-2.13c-.38-.23-.75-.41-1.08-.6l-.95-.39a12.69,12.69,0,0,0-1.35-.43l-.46-.14.47.11a11.44,11.44,0,0,1,1.37.36l1,.33c.35.17.74.33,1.14.54a5.83,5.83,0,0,1,2.27,2.17,2.79,2.79,0,0,1,.32.89l.09.49c0,.17,0,.33,0,.51a4.24,4.24,0,0,1-.71,2,9.88,9.88,0,0,1-3.48,3.05,30.78,30.78,0,0,1-10.42,3.35,74.52,74.52,0,0,1-12.9.84A109.75,109.75,0,0,1,366,207.37c-5-.7-10-1.62-15.14-2.78-2.54-.56-5.09-1.26-7.65-1.79-1.27-.27-2.54-.57-3.82-.81l-3.87-.55a47.71,47.71,0,0,0-15.38.51,35.48,35.48,0,0,0-13.54,6,41.27,41.27,0,0,0-9.69,10,58.35,58.35,0,0,0-6,11.16,87.12,87.12,0,0,0-5.16,18.34C285,252,284.82,254.66,284.82,254.66Z" transform="translate(-29 -51.65)"/><path class="cls-2" d="M395,312.85a40.05,40.05,0,0,0-6.78-4.19,12.22,12.22,0,0,0-7.73-1.21,11.05,11.05,0,0,0-6.29,4.59,30.31,30.31,0,0,0-3.63,7.07,65.69,65.69,0,0,0-2.31,7.63c-.63,2.59-1.13,5.2-1.7,7.8-1.13,5.2-2.31,10.39-3.75,15.52A72.58,72.58,0,0,1,357.12,365a20,20,0,0,1-5,6.24,9.91,9.91,0,0,1-3.62,1.79,9.66,9.66,0,0,1-4,.11,18.83,18.83,0,0,1-7.3-3.3,18.3,18.3,0,0,1-5.66-5.69,9.69,9.69,0,0,1-1.26-3.88,12,12,0,0,1,.31-4.05,36,36,0,0,1,3-7.45c2.42-4.75,5-9.43,6.57-14.48a44.73,44.73,0,0,0,1.79-7.71,33.93,33.93,0,0,0,.41-7.85,10.6,10.6,0,0,0-3-6.89,17.44,17.44,0,0,0-6.74-3.74,113.87,113.87,0,0,0-15.5-3.43c-2.62-.46-5.25-.87-7.88-1.28a43.26,43.26,0,0,1-7.89-1.75A28.71,28.71,0,0,1,294,298a26.9,26.9,0,0,1-5.92-5.75,30.65,30.65,0,0,1-4-7.25,40.35,40.35,0,0,1-2.3-8,58.59,58.59,0,0,1-1-8.25c-.07-1.38-.1-2.77-.08-4.17s0-2.75.21-4.3l5.83,1.13h0c-.23,1.14-.43,2.5-.59,3.78s-.27,2.6-.36,3.91a68.88,68.88,0,0,0-.07,7.87,50.83,50.83,0,0,0,3,15.27,35.91,35.91,0,0,0,3.47,6.86,29.76,29.76,0,0,0,5,5.8,32.75,32.75,0,0,0,13.67,7.13,49.89,49.89,0,0,0,7.83,1.37c1.32.12,2.66.22,4,.25a31,31,0,0,1,4.22.25,11.78,11.78,0,0,1,4.27,1.37,5.1,5.1,0,0,1,1.8,1.78,4.12,4.12,0,0,1,.5,2.52,7.3,7.3,0,0,1-.63,2.22,21.4,21.4,0,0,1-.95,1.92,16.23,16.23,0,0,1-2.58,3.43,10.5,10.5,0,0,1-3.61,2.43,4.39,4.39,0,0,1-2.34.28,1.7,1.7,0,0,1-1.2-.89,1.94,1.94,0,0,1,0-1.4,5.69,5.69,0,0,1,1.19-1.9,4.1,4.1,0,0,1,1.88-1.29,3.07,3.07,0,0,1,2.29.28,5.35,5.35,0,0,1,1.65,1.44,10.21,10.21,0,0,1,1.74,8,8.58,8.58,0,0,1-1.73,3.73,9.62,9.62,0,0,1-3.21,2.53,9.42,9.42,0,0,0,3.07-2.64,8.42,8.42,0,0,0,1.52-3.68,9.67,9.67,0,0,0-1.95-7.48c-.8-1-2-1.71-3.12-1.32a3.16,3.16,0,0,0-1.39,1.08,4.88,4.88,0,0,0-.91,1.57.84.84,0,0,0,0,.6.58.58,0,0,0,.42.23,3.18,3.18,0,0,0,1.65-.31,9,9,0,0,0,3-2.26,14.4,14.4,0,0,0,2.19-3.2,18.8,18.8,0,0,0,.78-1.78,5.27,5.27,0,0,0,.42-1.71,2.45,2.45,0,0,0-1.5-2.4,9.87,9.87,0,0,0-3.53-.91,34.41,34.41,0,0,0-4,0c-1.39,0-2.78,0-4.18-.07a51.35,51.35,0,0,1-8.33-1.08,40.25,40.25,0,0,1-8.08-2.66,34.24,34.24,0,0,1-7.32-4.54,33.22,33.22,0,0,1-5.94-6.31A38.7,38.7,0,0,1,284.5,294a55.42,55.42,0,0,1-4-16.57,77.44,77.44,0,0,1-.31-8.48c0-1.42.1-2.83.21-4.25s.24-2.79.48-4.33h0l5.84,1.14c-.32,1.07-.61,2.38-.85,3.61s-.38,2.52-.51,3.79a46.89,46.89,0,0,0-.1,7.68,37.75,37.75,0,0,0,1.36,7.54,27.78,27.78,0,0,0,3.18,6.94,23.81,23.81,0,0,0,12,9.36,41.79,41.79,0,0,0,7.64,1.86l7.86,1.4a114.15,114.15,0,0,1,15.62,3.56,18.5,18.5,0,0,1,7.07,4,11.49,11.49,0,0,1,3.19,7.44,34.93,34.93,0,0,1-.46,8.05,46.93,46.93,0,0,1-1.86,7.81c-1.68,5.1-4.27,9.81-6.7,14.53a34.93,34.93,0,0,0-3,7.3,10,10,0,0,0,.84,7.54,18,18,0,0,0,5.47,5.56,18.75,18.75,0,0,0,7.11,3.28,9.23,9.23,0,0,0,3.88-.09,9.38,9.38,0,0,0,3.49-1.7,19.59,19.59,0,0,0,4.95-6.1A72,72,0,0,0,362.56,350c1.47-5.11,2.69-10.29,3.83-15.49.59-2.59,1.09-5.21,1.73-7.79a66,66,0,0,1,2.33-7.64,30.21,30.21,0,0,1,3.66-7.07,11.08,11.08,0,0,1,6.33-4.6,12.2,12.2,0,0,1,7.75,1.23A40.72,40.72,0,0,1,395,312.85Z" transform="translate(-29 -51.65)"/><path class="cls-7" d="M280,320.22c.51,3.64-.14,6.74-1.44,6.92s-2.77-2.62-3.28-6.27.14-6.74,1.44-6.92S279.53,316.57,280,320.22Z" transform="translate(-29 -51.65)"/><path class="cls-7" d="M312.62,319.52c.51,3.65-.14,6.75-1.44,6.93s-2.77-2.62-3.28-6.27.13-6.74,1.44-6.93S312.11,315.88,312.62,319.52Z" transform="translate(-29 -51.65)"/><path class="cls-8" d="M286.36,318.87a14.77,14.77,0,0,1,.61,2.63,20.49,20.49,0,0,1,.22,2.71c0,.46,0,.91,0,1.37s-.07.91-.11,1.37a10.39,10.39,0,0,1-.21,1.36c-.09.45-.16.91-.29,1.35s-.25.89-.39,1.33l-.51,1.31a10.35,10.35,0,0,1-.6,1.26,9.74,9.74,0,0,1-.7,1.21l-.78,1.17c-.29.36-.61.71-.92,1.06l-.47.52-.52.47c-.34.32-.7.62-1.05.92l-.15-1.35c1,.63,2.07,1.3,3.09,2s2,1.39,3,2.17c-1.19-.36-2.34-.81-3.48-1.25s-2.27-.94-3.38-1.45l-1-.44.8-.91.86-.94.43-.45.38-.5c.25-.34.49-.68.75-1l.67-1.07a9.65,9.65,0,0,0,.6-1.1c.17-.38.41-.72.55-1.12l.49-1.16.41-1.2c.16-.4.25-.81.37-1.22s.22-.82.31-1.24.21-.84.28-1.26l.22-1.28A49.65,49.65,0,0,0,286.36,318.87Z" transform="translate(-29 -51.65)"/><path class="cls-8" d="M290.73,349.51a4.4,4.4,0,0,1,.36-.8,7.42,7.42,0,0,1,.55-.86,6.36,6.36,0,0,1,.92-1,5.76,5.76,0,0,1,1.33-1l.83-.39a8.41,8.41,0,0,1,.93-.26,4.15,4.15,0,0,1,1-.13,4.43,4.43,0,0,1,1,0c.35.05.69.1,1,.17a6.6,6.6,0,0,1,1,.32,7.31,7.31,0,0,1,.95.4l.85.52a8,8,0,0,1,1.5,1.17c.23.2.46.39.67.6s.38.44.56.65c.35.42.67.83,1,1.21a10.1,10.1,0,0,1,.68,1.11c.2.33.35.63.48.88.25.49.37.78.37.78s-.26-.18-.7-.52l-.76-.63c-.29-.23-.59-.53-.95-.81s-.76-.57-1.15-.9a11.5,11.5,0,0,0-1.29-.93,9.26,9.26,0,0,0-1.41-.88l-.73-.4a5.45,5.45,0,0,0-.76-.3,5.34,5.34,0,0,0-.76-.28c-.26,0-.51-.1-.77-.16a4.9,4.9,0,0,0-.76-.08,2.69,2.69,0,0,0-.75,0l-.73.08-.7.18a5.07,5.07,0,0,0-.65.24,2.82,2.82,0,0,0-.61.27A12.37,12.37,0,0,0,291.4,349C291,349.3,290.73,349.51,290.73,349.51Z" transform="translate(-29 -51.65)"/><path class="cls-7" d="M282.36,296.59a7.55,7.55,0,0,1,.16,1.34,13.78,13.78,0,0,1-.24,3.57c-.07.37-.15.75-.23,1.14l-.38,1.21a8,8,0,0,1-.49,1.24c-.19.41-.37.85-.61,1.27a14.82,14.82,0,0,1-1.69,2.44,11,11,0,0,1-1,1.14l-1.17,1a7.85,7.85,0,0,1-1.27.89c-.44.28-.88.54-1.32.79-.92.43-1.86.78-2.75,1.1s-1.83.39-2.68.54a22.84,22.84,0,0,1-2.41.11H265.2c-.34,0-.66-.08-.95-.12-.6-.08-1.11-.18-1.53-.26-.84-.16-1.3-.28-1.3-.28s.48-.15,1.3-.34c.41-.09.9-.21,1.46-.31a13.23,13.23,0,0,0,1.85-.47c.66-.21,1.39-.37,2.12-.61s1.47-.59,2.25-.86l2.24-1.15c.35-.24.7-.49,1.06-.71a6.45,6.45,0,0,0,1-.76l1-.82c.33-.27.6-.61.9-.91a19.48,19.48,0,0,0,1.62-1.91c.26-.31.44-.68.68-1a8.21,8.21,0,0,0,.62-1c.2-.33.39-.66.57-1l.48-.95c.31-.61.53-1.2.78-1.72s.42-1,.54-1.39C282.21,297.06,282.36,296.59,282.36,296.59Z" transform="translate(-29 -51.65)"/><path class="cls-7" d="M297,300.4l.26.29c.15.19.43.44.75.76s.76.66,1.25,1.05a7.68,7.68,0,0,0,.81.58,10.66,10.66,0,0,0,.89.62l1,.6,1.12.57.57.3.62.26,1.26.53c.9.26,1.77.67,2.74.87.47.12.95.24,1.43.38s1,.18,1.47.28l1.47.3,1.49.17,1.47.2,1.45.1c.95.05,1.88.21,2.77.2s1.73.06,2.51.11,1.51,0,2.15.05,1.21,0,1.67.05c.94.05,1.48.11,1.48.11s-.49.2-1.38.51c-.45.15-1,.33-1.62.52a16.25,16.25,0,0,1-2.14.54c-.79.15-1.66.31-2.58.45A24.51,24.51,0,0,1,317,311c-.51,0-1,.05-1.56,0s-1.06-.05-1.6-.1l-1.63-.12-1.63-.3c-.54-.12-1.09-.19-1.62-.35l-1.58-.49-.78-.25-.74-.33-1.45-.66c-.46-.25-.91-.52-1.34-.78a8.72,8.72,0,0,1-1.22-.83c-.38-.31-.76-.57-1.09-.88l-.93-.91a13.15,13.15,0,0,1-1.44-1.76,12.39,12.39,0,0,1-.88-1.5A6.47,6.47,0,0,1,297,300.4Z" transform="translate(-29 -51.65)"/><path class="cls-5" d="M351.86,293.21c-3.25-.17-2.42,5.36-3.66,7.17,4.68,9.35.74,21.13,1.13,21.93C360.82,319.75,361.23,293.71,351.86,293.21Z" transform="translate(-29 -51.65)"/><ellipse class="cls-4" cx="269.99" cy="311.92" rx="23.89" ry="18.66" transform="translate(-135.67 428.58) rotate(-73.2)"/><ellipse class="cls-4" cx="312.81" cy="324.86" rx="23.89" ry="18.66" transform="translate(-117.6 478.77) rotate(-73.2)"/><path class="cls-9" d="M286.56,320.61s5.71-5.44,7.46,3.25" transform="translate(-29 -51.65)"/><path class="cls-4" d="M331.24,330.25l6.89,1s8.56-38.64,14.09-38.64c3.78,0,5.85,8.3,5.85,8.3" transform="translate(-29 -51.65)"/><path class="cls-5" d="M268.2,362.73s169.36,6.23,176.64,39c5,22.45-69.62,19.22-122.61,3.64S268.2,362.73,268.2,362.73Z" transform="translate(-29 -51.65)"/><path class="cls-6" d="M238.58,368.44s-41-4.05-45.2,16.11c-5.35,25.84,36.89,34.8,138.2,33.25s72.73-4.68,45.2-6.76c0,0,73.25,3.64,2.59-6.75,0,0,64.95,6.75.52-5.2,0,0,60.27,7.28-9.87-6.75,0,0-7.47,1.46-18.7-1.56C323.76,383.37,272.18,371.76,238.58,368.44Z" transform="translate(-29 -51.65)"/><path class="cls-6" d="M352.88,390.26s61.82-8.83,14,5.2S352.88,390.26,352.88,390.26Z" transform="translate(-29 -51.65)"/><path class="cls-5" d="M323.27,378.31s-53.38-21.46-62.49-14.86S231.09,402,262,369.12c0,0-18.06,56.85,5.42,5.5,0,0-4.61,55.3,5.79,1.86,0,0,11.77,48.41,6.77.25l60.74,11.16Z" transform="translate(-29 -51.65)"/><path class="cls-10" d="M317,97.61c-16.75-1.21-54.81.4-58.36,17.28-4.06,16.49,31,14.88,44.15,13.27C313,127,340.87,116.5,320.06,109.67c-10.65-3.62-38.06,3.62-45.16,10.85-28.42,29,51.76,25.73,48.71,15.68-4.05-14.47-73.07,8.84-37,20.9,9.14,3.22,37.55-2,18.78-6.83-15.73-3.62-24.87,11.66-14.21,19.7" transform="translate(-29 -51.65)"/><polygon class="cls-2" points="75.29 367.35 196.16 367.35 150.43 284.05 29.56 284.05 75.29 367.35"/><rect class="cls-2" x="179.42" y="358.37" width="84.12" height="8.98"/><polygon class="cls-11" points="67.13 367.35 188 367.35 142.26 284.05 21.39 284.05 67.13 367.35"/></g></svg>