<?xml version="1.0" encoding="utf-8"?>
<!-- Generator: Adobe Illustrator 25.2.1, SVG Export Plug-In . SVG Version: 6.00 Build 0)  -->
<svg version="1.1" xmlns="http://www.w3.org/2000/svg" xmlns:xlink="http://www.w3.org/1999/xlink" x="0px" y="0px"
	 viewBox="0 0 500 500" style="enable-background:new 0 0 500 500;" xml:space="preserve">
<style type="text/css">
	.st0{display:none;fill:#EBEBEB;}
	.st1{fill:#EBEBEB;}
	.st2{fill:#E6E6E6;}
	.st3{fill:#F0F0F0;}
	.st4{fill:#FAFAFA;}
	.st5{fill:#E0E0E0;}
	.st6{fill:#F5F5F5;}
	.st7{fill:#FFFFFF;}
	.st8{opacity:0.6;}
	.st9{display:none;}
	.st10{display:inline;}
	.st11{fill:#407BFF;}
	.st12{opacity:0.9;fill:#FFFFFF;}
	.st13{fill:#263238;}
	.st14{opacity:0.1;fill:#FFFFFF;}
	.st15{fill:#803E3C;}
	.st16{fill:#7F3E3B;}
	.st17{opacity:0.2;}
	.st18{fill:#630F0F;}
	.st19{fill:#FFB573;}
	.st20{fill:#ED893E;}
</style>
<g id="Background_Complete">
	<g>
		<rect y="382.4" class="st0" width="500" height="0.25"/>
		<rect x="435" y="398.49" class="st1" width="14.9" height="0.25"/>
		<rect x="322.53" y="401.21" class="st1" width="8.69" height="0.25"/>
		<rect x="396.59" y="389.21" class="st1" width="34.19" height="0.25"/>
		<rect x="66.44" y="394.37" class="st1" width="43.19" height="0.25"/>
		<rect x="118.53" y="394.37" class="st1" width="15.58" height="0.25"/>
		<rect x="161.08" y="391.01" class="st1" width="93.68" height="0.25"/>
		<path class="st1" d="M237.01,337.8H43.92c-3.15,0-5.71-2.56-5.71-5.71V60.66c0-3.15,2.56-5.71,5.71-5.71h193.1
			c3.15,0,5.71,2.56,5.71,5.71v271.43C242.72,335.24,240.16,337.8,237.01,337.8z M43.92,55.2c-3.01,0-5.46,2.45-5.46,5.46v271.43
			c0,3.01,2.45,5.46,5.46,5.46h193.1c3.01,0,5.46-2.45,5.46-5.46V60.66c0-3.01-2.45-5.46-5.46-5.46H43.92z"/>
		<path class="st1" d="M453.31,337.8h-193.1c-3.15,0-5.71-2.56-5.71-5.71V60.66c0-3.15,2.56-5.71,5.71-5.71h193.1
			c3.15,0,5.71,2.56,5.71,5.71v271.43C459.02,335.24,456.46,337.8,453.31,337.8z M260.21,55.2c-3.01,0-5.46,2.45-5.46,5.46v271.43
			c0,3.01,2.45,5.46,5.46,5.46h193.1c3.01,0,5.46-2.45,5.46-5.46V60.66c0-3.01-2.45-5.46-5.46-5.46H260.21z"/>
	</g>
	<g>
		<g>
			<g>
				
					<rect x="270.9" y="245.04" transform="matrix(-1 -1.224647e-16 1.224647e-16 -1 571.2081 627.4351)" class="st2" width="29.4" height="137.36"/>
				<polygon class="st3" points="276.49,382.4 270.9,382.4 270.9,366.51 282.34,366.51 				"/>
				
					<rect x="418.69" y="245.04" transform="matrix(-1 -1.224647e-16 1.224647e-16 -1 866.787 627.4351)" class="st2" width="29.4" height="137.36"/>
				
					<rect x="270.9" y="245.04" transform="matrix(-1 -1.224647e-16 1.224647e-16 -1 694.4694 617.6876)" class="st3" width="152.66" height="127.61"/>
				<g>
					<path class="st2" d="M414.12,281.24H280.35c-3.14,0-5.7-2.56-5.7-5.7v-21.05c0-3.14,2.56-5.7,5.7-5.7h133.77
						c3.14,0,5.7,2.56,5.7,5.7v21.05C419.82,278.68,417.26,281.24,414.12,281.24z M280.35,249.96c-2.5,0-4.53,2.03-4.53,4.53v21.05
						c0,2.5,2.03,4.53,4.53,4.53h133.77c2.5,0,4.53-2.03,4.53-4.53v-21.05c0-2.5-2.03-4.53-4.53-4.53H280.35z"/>
					<path class="st2" d="M340.24,353.38h-59.89c-3.14,0-5.7-2.56-5.7-5.7v-58.32c0-3.14,2.56-5.7,5.7-5.7h59.89
						c3.14,0,5.7,2.56,5.7,5.7v58.32C345.94,350.82,343.39,353.38,340.24,353.38z M280.35,284.83c-2.5,0-4.53,2.03-4.53,4.53v58.32
						c0,2.5,2.03,4.53,4.53,4.53h59.89c2.5,0,4.53-2.03,4.53-4.53v-58.32c0-2.5-2.03-4.53-4.53-4.53H280.35z"/>
					<path class="st2" d="M414.12,353.38h-59.89c-3.14,0-5.7-2.56-5.7-5.7v-58.32c0-3.14,2.56-5.7,5.7-5.7h59.89
						c3.14,0,5.7,2.56,5.7,5.7v58.32C419.82,350.82,417.26,353.38,414.12,353.38z M354.23,284.83c-2.5,0-4.53,2.03-4.53,4.53v58.32
						c0,2.5,2.03,4.53,4.53,4.53h59.89c2.5,0,4.53-2.03,4.53-4.53v-58.32c0-2.5-2.03-4.53-4.53-4.53H354.23z"/>
				</g>
				<path class="st4" d="M359.83,301c-3.06,0-5.55-2.49-5.55-5.55c0-3.06,2.49-5.55,5.55-5.55s5.55,2.49,5.55,5.55
					C365.38,298.51,362.89,301,359.83,301z M359.83,291.08c-2.41,0-4.38,1.96-4.38,4.38c0,2.41,1.96,4.38,4.38,4.38
					c2.42,0,4.38-1.96,4.38-4.38C364.21,293.04,362.24,291.08,359.83,291.08z"/>
				<path class="st4" d="M334.64,301c-3.06,0-5.55-2.49-5.55-5.55c0-3.06,2.49-5.55,5.55-5.55c3.06,0,5.55,2.49,5.55,5.55
					C340.19,298.51,337.7,301,334.64,301z M334.64,291.08c-2.41,0-4.38,1.96-4.38,4.38c0,2.41,1.96,4.38,4.38,4.38
					c2.42,0,4.38-1.96,4.38-4.38C339.02,293.04,337.05,291.08,334.64,291.08z"/>
				<polygon class="st3" points="417.98,382.4 423.57,382.4 423.57,366.51 412.13,366.51 				"/>
				<path class="st4" d="M346.58,270.79c-3.06,0-5.55-2.49-5.55-5.55c0-3.06,2.49-5.55,5.55-5.55s5.55,2.49,5.55,5.55
					C352.13,268.3,349.64,270.79,346.58,270.79z M346.58,260.86c-2.42,0-4.38,1.96-4.38,4.38c0,2.42,1.96,4.38,4.38,4.38
					c2.42,0,4.38-1.96,4.38-4.38C350.96,262.83,348.99,260.86,346.58,260.86z"/>
			</g>
		</g>
		<g>
			<g>
				
					<rect x="277.14" y="98.07" transform="matrix(-1 -1.224647e-16 1.224647e-16 -1 701.4439 253.97)" class="st3" width="147.16" height="57.82"/>
				
					<rect x="324.97" y="56.2" transform="matrix(-1.836970e-16 1 -1 -1.836970e-16 477.7071 -223.7372)" class="st2" width="51.51" height="141.56"/>
				
					<rect x="373.42" y="98.72" transform="matrix(-1 -1.224647e-16 1.224647e-16 -1 749.6327 253.97)" class="st3" width="2.8" height="56.53"/>
				<rect x="376.22" y="101.23" class="st5" width="15.5" height="51.51"/>
				<rect x="328.14" y="101.23" class="st5" width="15.5" height="51.51"/>
				<rect x="279.94" y="101.23" class="st5" width="15.5" height="51.51"/>
				
					<rect x="325.33" y="98.72" transform="matrix(-1 -1.224647e-16 1.224647e-16 -1 653.4599 253.97)" class="st3" width="2.8" height="56.53"/>
				<rect x="424.3" y="98.07" class="st2" width="13.93" height="57.82"/>
			</g>
			<g>
				<polygon class="st1" points="385.83,152.74 411.63,152.74 405.57,108.81 379.77,108.81 				"/>
				<polygon class="st6" points="335.39,152.74 361.2,152.74 356.72,108.81 330.92,108.81 				"/>
				<polygon class="st5" points="347.73,152.74 371.2,152.74 361.32,112.78 337.85,112.78 				"/>
				
					<rect x="395.7" y="105.27" transform="matrix(-1 -1.224647e-16 1.224647e-16 -1 817.203 258.0051)" class="st6" width="25.8" height="47.47"/>
				
					<rect x="285.6" y="105.27" transform="matrix(-1 -1.224647e-16 1.224647e-16 -1 597.0062 258.0051)" class="st6" width="25.8" height="47.47"/>
				<polygon class="st5" points="303.87,152.74 323.87,152.74 316.92,112.78 296.92,112.78 				"/>
				<polygon class="st6" points="313.82,152.74 325.33,152.74 325.33,115.69 302.83,115.69 				"/>
				
					<rect x="285.6" y="105.27" transform="matrix(-1 -1.224647e-16 1.224647e-16 -1 577.0807 258.0051)" class="st4" width="5.88" height="47.47"/>
				<path class="st3" d="M403.13,149.19L403.13,149.19c0.43,0,0.78-0.35,0.78-0.78v-38.82c0-0.43-0.35-0.78-0.78-0.78l0,0
					c-0.43,0-0.78,0.35-0.78,0.78v38.82C402.36,148.84,402.7,149.19,403.13,149.19z"/>
			</g>
		</g>
		<g>
			<g>
				<path class="st3" d="M400.52,217.41c2.73-13.06,4.63-34.25,3.16-41.34c-0.05-0.25-0.33-0.47-0.77-0.61l0,0
					c-1.27-0.43-3.06,0-3,0.73c0.26,3.51,0.56,12.29-1.06,27.44c-0.81,7.54-1.97,12.7-1.17,13.79H400.52z"/>
				<path class="st3" d="M408.35,189.32c6.24-3.71,19.14-6.64,32.36-7.08c5.19-0.18-15.66,4.6-24.24,9.38
					c-6.67,3.71-14.12,9.81-16.61,13.14C401.31,197.87,402.11,193.02,408.35,189.32z"/>
				<path class="st3" d="M395.29,188.52c-6.46-4.15-21.36-7.34-37.48-7.7c-6.33-0.14,17.75,5.07,26.74,10.41
					c6.98,4.15,14.14,11.02,16.11,14.78C401.13,198.19,401.75,192.67,395.29,188.52z"/>
				<path class="st3" d="M407.92,177.11c4.92-3.09,15.8-5.63,27.32-6.15c4.53-0.2-13.05,3.93-19.87,7.92
					c-5.3,3.1-10.93,8.16-12.63,10.91C403.01,184.17,403,180.2,407.92,177.11z"/>
				<path class="st3" d="M398,177.74c-5.47-3.51-18.09-6.22-31.74-6.52c-5.36-0.12,15.03,4.29,22.64,8.81
					c5.91,3.51,11.97,9.33,13.64,12.52C402.95,185.93,403.46,181.26,398,177.74z"/>
				<path class="st3" d="M404.61,203.27c3.56-2.33,11.55-4.29,20.1-4.76c3.35-0.18-9.57,3.01-14.5,6.03
					c-3.83,2.34-7.86,6.14-9.03,8.19C401.19,208.54,401.06,205.6,404.61,203.27z"/>
				<path class="st3" d="M398.15,201.96c-3.09-2.31-10.74-4.26-19.26-4.73c-3.35-0.18,9.01,3,13.34,5.98
					c3.37,2.32,6.61,6.09,7.35,8.12C400.46,207.19,401.24,204.27,398.15,201.96z"/>
			</g>
			<g>
				<path class="st2" d="M399.37,245.04L399.37,245.04c6.8,0,12.43-1.79,12.82-10.37l1.13-24.8h-27.9l1.13,24.8
					C386.94,243.24,392.56,245.04,399.37,245.04z"/>
			</g>
		</g>
		<g>
			<g>
				
					<rect x="64.98" y="80.77" transform="matrix(-1 -1.224647e-16 1.224647e-16 -1 283.8719 433.4681)" class="st2" width="153.92" height="271.93"/>
				<path class="st2" d="M48.48,75.51h180.38c0.84,0,1.53,0.68,1.53,1.53l0,0c0,0.84-0.68,1.53-1.53,1.53H48.48
					c-0.84,0-1.53-0.68-1.53-1.53l0,0C46.95,76.2,47.64,75.51,48.48,75.51z"/>
				
					<rect x="58.45" y="80.77" transform="matrix(-1 -1.224647e-16 1.224647e-16 -1 274.289 433.4681)" class="st3" width="157.4" height="271.93"/>
				
					<rect x="10.32" y="147.18" transform="matrix(-1.836970e-16 1 -1 -1.836970e-16 353.8787 79.5894)" class="st4" width="253.64" height="139.11"/>
				<polygon class="st7" points="175.12,343.56 121.46,89.91 96.12,89.91 149.79,343.56 				"/>
				<polygon class="st7" points="144.35,343.56 90.68,89.91 80.8,89.91 134.47,343.56 				"/>
				
					<rect x="-58.65" y="216.15" transform="matrix(-1.836970e-16 1 -1 -1.836970e-16 284.9041 148.564)" class="st2" width="253.64" height="1.16"/>
			</g>
			<g class="st8">
				<polygon class="st3" points="210.48,372.32 229.8,372.32 226.74,72.78 207.41,72.78 				"/>
				<polygon class="st2" points="202.95,372.32 218,372.32 214.94,72.78 199.88,72.78 				"/>
				<polygon class="st3" points="191.15,372.32 210.48,372.32 207.41,72.78 188.08,72.78 				"/>
				<polygon class="st2" points="183.62,372.32 198.68,372.32 195.61,72.78 180.55,72.78 				"/>
				<polygon class="st3" points="171.82,372.32 191.15,372.32 188.08,72.78 168.76,72.78 				"/>
			</g>
			<g class="st8">
				<polygon class="st3" points="61.63,372.32 50.71,372.32 49.25,72.78 60.17,72.78 				"/>
				<polygon class="st2" points="65.89,372.32 57.38,372.32 55.91,72.78 64.42,72.78 				"/>
				<polygon class="st3" points="72.55,372.32 61.63,372.32 60.17,72.78 71.09,72.78 				"/>
				<polygon class="st2" points="76.81,372.32 68.3,372.32 66.84,72.78 75.35,72.78 				"/>
				<polygon class="st3" points="83.48,372.32 72.55,372.32 71.09,72.78 82.01,72.78 				"/>
			</g>
		</g>
	</g>
</g>
<g id="Background_Simple" class="st9">
	<g class="st10">
		<path class="st11" d="M221.99,171.24c33.8-22.01,57.43-64.74,104.46-63c35.31,1.3,57.69,30.37,67.54,63.89
			c25.88,88.02-77.63,163.9-151.79,180.07c-76.81,16.75-190.77-10.13-190.18-103.34c0.24-38.42,27.39-60.52,65.95-69.63
			C150.74,171.49,195.5,188.5,221.99,171.24z"/>
		<path class="st12" d="M221.99,171.24c33.8-22.01,57.43-64.74,104.46-63c35.31,1.3,57.69,30.37,67.54,63.89
			c25.88,88.02-77.63,163.9-151.79,180.07c-76.81,16.75-190.77-10.13-190.18-103.34c0.24-38.42,27.39-60.52,65.95-69.63
			C150.74,171.49,195.5,188.5,221.99,171.24z"/>
	</g>
</g>
<g id="Shadow_1_">
	<ellipse id="_x3C_Path_x3E__237_" class="st6" cx="250" cy="416.24" rx="193.89" ry="11.32"/>
</g>
<g id="Character_1">
	<g>
		<g>
			<path class="st11" d="M202.57,171.08h-8.76c-0.44,0-0.82-0.36-0.84-0.8l-0.77-18.01c-0.02-0.44,0.33-0.8,0.77-0.8h8.76
				c0.44,0,0.82,0.36,0.84,0.8l0.77,18.01C203.36,170.72,203.01,171.08,202.57,171.08z"/>
			<path class="st13" d="M196.21,355.65H88.51c-5.44,0-10.07-4.45-10.31-9.88l-9.5-221.32c-0.23-5.44,4.02-9.88,9.46-9.88h107.7
				c5.44,0,10.07,4.45,10.31,9.88l9.5,221.32C205.9,351.2,201.64,355.65,196.21,355.65z"/>
			<path class="st13" d="M88.68,183.64H71.15c-0.88,0-1.64-0.72-1.68-1.61l-1.55-36.02c-0.04-0.88,0.65-1.61,1.54-1.61h17.53
				c0.88,0,1.64,0.72,1.68,1.61l1.55,36.02C90.26,182.91,89.56,183.64,88.68,183.64z"/>
			
				<rect x="208.57" y="263.82" transform="matrix(0.9991 -0.0429 0.0429 0.9991 -11.2941 9.2129)" class="st11" width="1" height="8.02"/>
			
				<rect x="207.42" y="227.47" transform="matrix(0.9991 -0.0429 0.0429 0.9991 -10.1399 9.1381)" class="st11" width="1" height="26.87"/>
			<path class="st11" d="M199.96,355.65H92.26c-5.44,0-10.07-4.45-10.31-9.88l-9.5-221.32c-0.23-5.44,4.02-9.88,9.46-9.88h107.7
				c5.44,0,10.07,4.45,10.31,9.88l9.5,221.32C209.65,351.2,205.39,355.65,199.96,355.65z"/>
			<path class="st7" d="M199.96,351.72H92.26c-3.32,0-6.24-2.8-6.38-6.12l-9.5-221.32c-0.07-1.55,0.47-3,1.52-4.09
				c1.04-1.09,2.47-1.69,4.01-1.69h107.7c3.32,0,6.24,2.8,6.38,6.12l9.5,221.32c0.07,1.55-0.47,3-1.52,4.09
				C202.93,351.12,201.5,351.72,199.96,351.72z M81.91,119.21c-1.35,0-2.59,0.52-3.5,1.47c-0.91,0.95-1.38,2.22-1.32,3.57
				l9.5,221.32c0.13,2.95,2.72,5.44,5.67,5.44h107.7c1.35,0,2.59-0.52,3.5-1.47c0.91-0.95,1.38-2.22,1.32-3.57l-9.5-221.32
				c-0.13-2.95-2.72-5.44-5.67-5.44H81.91z"/>
			<polygon class="st14" points="124.12,355.65 142.49,114.56 171.08,114.56 152.71,355.65 			"/>
			<polygon class="st14" points="102.52,355.65 120.89,114.56 135.37,114.56 117.01,355.65 			"/>
		</g>
		<g>
			<path class="st15" d="M189.2,165.02c1.59,0.29,3.06,0.92,4.44,1.6c1.38,0.69,2.69,1.5,3.93,2.39l7.47,5.31
				c4.97,3.5,9.9,7.1,14.82,10.1c1.23,0.75,2.44,1.42,3.61,2.03c0.56,0.3,1.21,0.58,1.63,0.8c0.1,0.12,0.18,0.22,0.33,0.32
				c0.27,0.19,0.86,0.27,1.7,0.09c0.83-0.18,1.85-0.61,2.89-1.21c4.22-2.47,8.58-7.09,12.06-11.61l0.16-0.2
				c1.34-1.74,3.83-2.06,5.57-0.72c1.47,1.13,1.93,3.09,1.23,4.71c-0.72,1.67-1.41,3.11-2.19,4.64c-0.77,1.5-1.61,2.98-2.53,4.43
				c-1.85,2.9-3.93,5.77-6.8,8.42c-1.44,1.32-3.09,2.6-5.14,3.67c-2.03,1.06-4.57,1.91-7.44,1.98c-1.42,0.04-2.9-0.13-4.29-0.48
				c-1.06-0.28-1.9-0.53-2.79-0.83c-1.74-0.58-3.39-1.2-4.97-1.85c-6.33-2.6-12.14-5.53-17.76-8.78c-2.8-1.62-5.54-3.33-8.24-5.07
				c-1.35-0.87-2.63-1.85-3.83-2.95c-1.2-1.12-2.29-2.3-3.25-3.84c-2.51-4.05-1.27-9.36,2.78-11.87c1.9-1.18,4.07-1.53,6.11-1.16
				L189.2,165.02z"/>
			<path class="st16" d="M241.61,175.73l3.92-5.85c0.82-1.22,1.89-2.25,3.14-3.01l3.08-1.89c1.54-0.94,3.55-0.44,4.46,1.12l2,3.41
				c0.79,1.36,0.49,3.09-0.72,4.1l-3.57,2.96c0,0-5.52,6.41-9.4,4.03L241.61,175.73z"/>
			<g>
				
					<ellipse transform="matrix(0.9239 -0.3827 0.3827 0.9239 -48.2145 107.4598)" class="st13" cx="246.01" cy="174.93" rx="10.94" ry="10.94"/>
				<rect x="244.89" y="161.9" class="st13" width="2.25" height="4.61"/>
				<path class="st13" d="M243.71,161.74v-0.56c0-0.47,0.38-0.84,0.84-0.84h2.93c0.47,0,0.84,0.38,0.84,0.84v0.56
					c0,0.47-0.38,0.84-0.84,0.84h-2.93C244.08,162.58,243.71,162.21,243.71,161.74z"/>
				
					<ellipse transform="matrix(0.2298 -0.9732 0.9732 0.2298 19.244 374.1666)" class="st7" cx="246.01" cy="174.93" rx="9.49" ry="9.49"/>
				<path class="st13" d="M247.89,173.68c0.69,1.04,0.41,2.44-0.63,3.13c-1.04,0.69-2.44,0.41-3.13-0.63
					c-0.69-1.04-0.41-2.44,0.63-3.13C245.8,172.35,247.2,172.64,247.89,173.68z"/>
				<path class="st13" d="M241.37,167.94c0,0,0.96,3.26,3.17,6.6l1.68-1.11C244.01,170.08,241.37,167.94,241.37,167.94z"/>
			</g>
			<path class="st13" d="M139.93,165.26l25.23-4.33l21.45,3.52c4.51,0.74,7.83,3.97,8.13,9.58c1.26,23.78-2.61,34.73-3.27,72.27
				c-1.58,0-47.96,0.79-47.96,0.79c1.14-20.38-9.36-45.92-11.58-71.41C131.48,170.65,134.96,166.12,139.93,165.26z"/>
			<path class="st16" d="M154.05,140c0.48,6.57,0.71,15.18-1.09,23.03c-1.7,2.25,7.96,5.44,17.85,5.95
				c6.61-2.63,6.05-4.94,4.08-6.45c-7.54-1.23-5.77-8.58-4.66-13.87L154.05,140z"/>
			<path class="st17" d="M169.52,148.28l0.71,0.38c-0.45,2.08-0.98,4.48-1,6.7c-3.41,0.03-6.95-0.95-8.82-3.1
				c-1.55-1.79-2.79-3.72-3.11-4.86L169.52,148.28z"/>
			<path class="st17" d="M136.89,173.92c1.91,0.82,5.16,6.06,4.85,11.64c-0.34,6.41-2.43,11.82-5.49,15.86
				c-1.53-6.89-2.95-13.9-3.83-20.94L136.89,173.92z"/>
			<path class="st16" d="M151.68,132.04c1.44,8.97,1.83,14.3,6.85,18.45c7.55,6.24,18.29,0.9,19.56-8.34
				c1.14-8.32-1.41-21.6-10.6-24.24C158.43,115.3,150.24,123.07,151.68,132.04z"/>
			<path class="st13" d="M154.42,141.61c4.25-1.89,6.61-11.27,0.97-14.62c3.6-0.32,10.01-2.67,10.13-4.46
				c4.8,1.6,8.76,2.1,9.64-0.55c1.44-4.35-0.48-9.02-3.19-11.73c-0.64,2.31-7.32,3.64-11.92,2.13c-7.7-2.53-15.57-0.42-13.03,6.01
				C137.85,121.69,144.18,133.77,154.42,141.61z"/>
			<path class="st7" d="M175.42,124.32c-6.79,0.64-23.56,4.91-28.94,8.19c-0.24,0.15-0.53,0.14-0.77-0.01
				c-1.37-0.9-2.53-3.26-2.53-4.36c0-1.57,26.53-9.13,32.5-9.4c0.31-0.01,0.6,0.17,0.69,0.47c0.56,1.8-0.05,3.82-0.37,4.67
				C175.91,124.13,175.69,124.29,175.42,124.32z"/>
			<path class="st16" d="M148.13,140.63c1.05,2.2,3.03,3.71,4.94,4.34c2.88,0.95,4.48-1.59,3.82-4.38c-0.6-2.51-2.81-6.02-5.76-5.76
				C148.22,135.09,146.93,138.11,148.13,140.63z"/>
			<path class="st7" d="M191.35,246.3c0,0,0.5,66.79-2.26,94.47c-0.33,3.28-0.61,6.84-0.84,10.6H164.6
				c0.12-4.93,0.42-9.66,0.93-14.08c-0.4-14.87-3.39-29.7-6.23-42.83c-5.15-23.88-4.45-47.53-4.45-47.53l20.13-0.35L191.35,246.3z"
				/>
			<path class="st17" d="M166.82,274.61c-1.89-5.2-5.93,0.08-9.74,7.27c0.58,4.09,1.32,8.33,2.23,12.56
				c2.09,9.7,4.26,20.32,5.43,31.2C169.36,314.68,170.58,285,166.82,274.61z"/>
			<path class="st13" d="M165.37,133.11c0.07,0.74,0.52,1.29,1,1.24c0.48-0.05,0.81-0.69,0.74-1.42c-0.07-0.74-0.52-1.29-1-1.24
				C165.63,131.73,165.3,132.37,165.37,133.11z"/>
			<path class="st13" d="M174.97,132.34c0.07,0.74,0.52,1.29,1,1.24c0.48-0.05,0.81-0.69,0.74-1.42c-0.07-0.74-0.52-1.29-1-1.24
				C175.23,130.97,174.89,131.6,174.97,132.34z"/>
			<path class="st18" d="M171.34,132.85c0,0,2.09,4.06,4.13,5.91c-1.18,1.35-3.45,1.04-3.45,1.04L171.34,132.85z"/>
			<path class="st13" d="M169.11,142.1c-2.84-0.08-4.32-1.88-4.39-1.96c-0.07-0.09-0.06-0.23,0.03-0.31
				c0.09-0.08,0.23-0.06,0.31,0.03c0.02,0.02,1.76,2.11,4.97,1.77c0.12-0.01,0.23,0.07,0.24,0.19c0.01,0.12-0.08,0.23-0.19,0.24
				C169.74,142.1,169.42,142.11,169.11,142.1z"/>
			<path class="st13" d="M163.21,129.8c-0.07,0-0.14-0.02-0.21-0.06c-0.2-0.12-0.27-0.39-0.14-0.6c1.25-2.06,3.26-2.16,3.34-2.16
				c0.24-0.01,0.44,0.18,0.45,0.42c0.01,0.24-0.18,0.44-0.42,0.45l0,0c-0.07,0-1.63,0.09-2.63,1.74
				C163.51,129.73,163.36,129.81,163.21,129.8z"/>
			<path class="st13" d="M177.09,128.19c-0.14,0.01-0.28-0.04-0.38-0.16c-1.18-1.5-2.74-1.39-2.81-1.38
				c-0.24,0.02-0.45-0.16-0.47-0.39c-0.02-0.24,0.16-0.45,0.39-0.47c0.09-0.01,2.08-0.17,3.56,1.7c0.15,0.19,0.11,0.46-0.07,0.61
				C177.26,128.15,177.17,128.18,177.09,128.19z"/>
			<path class="st7" d="M177.11,246.56c0,0-6.5,23.01-12.32,47.89c-3.88,16.6-8.2,33.71-10.96,44.7c-0.85,3.38-1.97,7.97-3.74,12.22
				h-24.07c1.42-5.75,3.05-10.94,4.9-15.23c6.35-41.2,6.52-80.36,12.61-89.57H177.11z"/>
			<path class="st7" d="M191.57,242.35l-48.36,1.11c-0.3,0.01-0.53,0.25-0.53,0.54v3.17c0,0.3,0.25,0.55,0.55,0.54l48.11-0.31
				c0.29,0,0.52-0.22,0.54-0.51l0.25-3.97C192.14,242.61,191.89,242.35,191.57,242.35z"/>
			<path class="st16" d="M137.41,237l7.03-0.52c1.46-0.11,2.93,0.1,4.31,0.61l3.39,1.26c1.69,0.63,2.53,2.52,1.87,4.2l-1.46,3.68
				c-0.58,1.46-2.13,2.29-3.67,1.96l-4.54-0.99c0,0-8.45-0.4-8.97-4.92L137.41,237z"/>
			<path class="st15" d="M147.8,177.2c-0.56,3.49-2.17,6.4-3.98,9.14l-5.4,8.24l-5.4,8.13c-1.75,2.68-3.5,5.41-4.84,7.93
				c-0.34,0.62-0.63,1.22-0.88,1.73l-0.15,0.33l-0.07,0.15l-0.04,0.08c-0.01,0.03,0.01-0.05,0.01-0.07
				c0.02-0.31-0.01-0.44-0.05-0.49c-0.08-0.08-0.14,0.24-0.09,0.67c0.04,0.43,0.16,0.99,0.34,1.58c0.71,2.42,2.11,5.24,3.64,7.95
				c1.54,2.74,3.26,5.49,5.07,8.19c1.81,2.69,3.72,5.44,5.64,8l0.06,0.08c1.32,1.75,0.97,4.25-0.79,5.56
				c-1.54,1.16-3.64,1.03-5.03-0.21c-5.22-4.63-10.07-9.4-14.66-14.89c-2.27-2.79-4.48-5.64-6.43-9.38
				c-0.48-0.95-0.94-1.97-1.35-3.15c-0.4-1.18-0.77-2.52-0.88-4.27c-0.04-0.88-0.03-1.85,0.2-2.98l0.08-0.38l0.05-0.22l0.11-0.45
				c0.07-0.29,0.15-0.62,0.22-0.86c0.3-1.07,0.61-2.04,0.93-2.95c1.28-3.64,2.66-6.83,4.09-10.04c1.43-3.19,2.95-6.27,4.53-9.32
				c1.59-3.03,3.25-6.01,4.97-8.95c0.84-1.48,1.76-2.91,2.85-4.23c1.1-1.32,2.28-2.56,3.86-3.62c3.98-2.68,9.38-1.63,12.07,2.35
				c1.28,1.9,1.71,4.12,1.38,6.21L147.8,177.2z"/>
		</g>
	</g>
</g>
<g id="Character_2">
	<g>
		<path class="st19" d="M336.23,269.78c3.42,3.26,6.52,6.58,9.52,10.22c1.48,1.83,2.93,3.7,4.28,5.76c0.68,1.03,1.33,2.1,1.95,3.26
			c0.62,1.18,1.2,2.42,1.64,4.04c0.21,0.83,0.4,1.73,0.36,2.95c-0.07,1.15-0.24,1.77-0.44,2.55c-0.39,1.43-0.93,2.64-1.48,3.79
			c-1.1,2.28-2.38,4.29-3.7,6.24c-2.68,3.88-5.6,7.38-8.83,10.74c-0.9,0.93-2.38,0.96-3.31,0.06c-0.79-0.76-0.93-1.94-0.41-2.85
			l0.03-0.06c2.19-3.82,4.39-7.72,6.32-11.57c0.96-1.92,1.84-3.87,2.52-5.72c0.33-0.92,0.58-1.83,0.72-2.58l0.07-0.51l0.01-0.2
			l0.01-0.1c-0.01,0.01-0.01,0.03-0.01,0.04c-0.01,0.09-0.05-0.12-0.15-0.37c-0.19-0.54-0.61-1.33-1.09-2.11
			c-0.48-0.8-1.05-1.62-1.65-2.43c-1.22-1.63-2.57-3.28-3.99-4.89c-2.82-3.22-5.89-6.45-8.89-9.48l-0.06-0.06
			c-1.83-1.84-1.81-4.82,0.03-6.64C331.49,268.05,334.39,268.04,336.23,269.78z"/>
		<path class="st19" d="M336.92,315.24l-9.23,3.64l9.42,3.53c0,0,3.76-2.29,3.45-6.1L336.92,315.24z"/>
		<path class="st19" d="M327.71,324.6l3.49,1.65c0.92,0.43,2.01,0.23,2.71-0.5l3.2-3.33l-9.42-3.53l-1.14,2.65
			C326.05,322.7,326.56,324.05,327.71,324.6z"/>
		<path class="st19" d="M320.41,247.35c-1.07,5.45-2.14,15.44,1.68,19.08c0,0-3.22,8.93-15.17,10.58
			c-6.75-5.58-1.78-10.58-1.78-10.58c6.08-1.45,5.92-5.96,4.86-10.2L320.41,247.35z"/>
		<path class="st13" d="M288.54,274.94c-0.15,6.66,0.79,20.52,5.47,49.3h37.32c-0.58-14.06-1.26-23.26,4.41-49.3
			c0.8-3.66-1.7-7.23-5.41-7.73c-2.41-0.33-5.25-0.63-8.23-0.77c-6.28-0.3-11.42-0.5-16.94,0c-3.65,0.33-7.54,0.92-10.52,1.43
			C291.16,268.45,288.61,271.42,288.54,274.94z"/>
		<path class="st13" d="M302.52,234.65c-0.25,0.7-0.82,1.13-1.28,0.97c-0.46-0.16-0.62-0.86-0.38-1.56s0.82-1.13,1.28-0.97
			C302.6,233.25,302.77,233.95,302.52,234.65z"/>
		<path class="st13" d="M302.33,233.2l-1.5-1.08C300.83,232.12,301.22,233.73,302.33,233.2z"/>
		<path class="st20" d="M300.95,236.44c0,0-1.93,2.83-3.62,4.03c0.75,1.11,2.47,1.07,2.47,1.07L300.95,236.44z"/>
		<path class="st13" d="M303.14,228.93c-0.03-0.1-0.03-0.22,0.02-0.32c0.1-0.22,0.36-0.31,0.58-0.21c2.18,1.03,2.48,3.01,2.49,3.1
			c0.03,0.24-0.13,0.46-0.37,0.49c-0.24,0.03-0.46-0.13-0.49-0.37c-0.01-0.08-0.26-1.62-2-2.43
			C303.25,229.13,303.17,229.04,303.14,228.93z"/>
		<path class="st19" d="M326.89,240.38c-3.58,8.38-4.92,12.01-10.82,14.87c-8.87,4.29-18.39-1.94-17.38-11.23
			c0.91-8.36,6.62-20.67,16.22-21.08C324.38,222.52,330.47,231.99,326.89,240.38z"/>
		<path class="st13" d="M306.72,238.52c-2.05-4.17,0.22-7.42,2.52-9.01c-0.74-2.23-3.07-1.48-3.39-3.5
			c-0.32-2.01-0.86-7.84,6.14-5.62c1.07-3.28,11.87-2.69,14.52-0.5c10.21-5.86,4.17-18.9,17.91-15.71
			c9.76,2.27,8.83,12.29,17.62,17.91c14.93,9.54-2.19,16.91-7.34,32.19c-3.92,11.65-24.08,1.61-24.87-8.86
			c-3.13-2.82-1.9,9.73-12.94,9.4C308.31,254.57,301.45,245.2,306.72,238.52z"/>
		<path class="st11" d="M328.07,247.81c-0.61,0-1.21-0.23-1.67-0.69c-4.4-4.36-10.73-15.82-3.21-28.02
			c0.69-1.12,2.16-1.47,3.28-0.78c1.12,0.69,1.47,2.16,0.78,3.28c-7.39,11.98,2.11,21.73,2.52,22.13c0.93,0.93,0.93,2.44,0,3.37
			C329.29,247.57,328.68,247.81,328.07,247.81z"/>
		<path class="st19" d="M297.33,329.39c0,0-75.72-27.54-70.44-0.02c5.21,27.14,9.61,76.56,9.61,76.56l7.62-0.49
			c0,0,8.27-38.17,3.01-62.77c31.31,11.32,55.99,8.81,55.99,8.81L297.33,329.39z"/>
		<path class="st11" d="M236.16,406.79c-1.06-8.58-3.18-31.15-4.34-38.04c8.26-0.64,17.59,1.17,17.59,1.17s-3.02,29.4-4.87,35.76
			C238.81,406.89,236.16,406.79,236.16,406.79z"/>
		<path class="st13" d="M236.4,404.42l8.12-0.19c0.38-0.01,0.64,0.24,0.63,0.61l-0.15,7.27c-0.03,0.85-0.92,1.68-1.8,1.69
			c-3.64,0.03-5.02-0.46-9.63-0.34c-2.83,0.07-5.87,0.46-9.74,0.35c-3.78-0.11-1.72-3.64-0.03-3.79c4.79-0.42,7.81-2.7,10.92-4.99
			C235.25,404.65,235.85,404.43,236.4,404.42z"/>
		<path class="st19" d="M307.05,336.54c0,0,17.34,77.97,37.24,77.27c28.02-0.98,66.64-12.9,66.64-12.9l-1.21-6.58
			c0,0-40.22-2.5-58.65,2.4c-6.68-30.09-16.69-60.18-16.69-60.18H307.05z"/>
		<path class="st11" d="M410.7,401.67c-8.37,2.19-30.45,7.3-37.12,9.37c-1.73-8.11-1.19-17.59-1.19-17.59s29.54-0.92,36.09,0.07
			C410.46,399.03,410.7,401.67,410.7,401.67z"/>
		<path class="st13" d="M408.79,401.17l-1.93-7.89c-0.09-0.37,0.1-0.68,0.46-0.74l7.13-1.42c0.84-0.15,1.84,0.54,2.03,1.39
			c0.81,3.55,0.31,6.36,1.26,10.86c1.72,8.19-0.24,10.45-4.11,10.46c-3.78,0.01-3.79-1.23-2.49-2.32c4.03-3.37,1.49-6.3-1.41-8.84
			C409.27,402.25,408.92,401.72,408.79,401.17z"/>
		<path class="st19" d="M310.32,239.85c-0.99,1.61-2.64,2.61-4.16,2.94c-2.28,0.5-3.29-1.58-2.54-3.66c0.67-1.88,2.67-4.4,4.91-3.96
			C310.73,235.6,311.46,238.01,310.32,239.85z"/>
		<path class="st11" d="M294.13,326.27l37.87-1.22c0.35-0.01,0.6-0.35,0.5-0.68l-0.57-2.02c-0.07-0.24-0.29-0.4-0.54-0.39
			l-37.37,1.23c-0.3,0.01-0.53,0.26-0.52,0.56l0.06,2.01C293.59,326.04,293.84,326.28,294.13,326.27z"/>
		<path class="st11" d="M299.59,324.34c0,0,4.92,25.78,12.61,41.18c7.83-0.34,31.98-3.68,33.78-7.45
			c-3.93-20.62-11.72-30.91-14.68-34.42C314.13,323.92,299.59,324.34,299.59,324.34z"/>
		<path class="st17" d="M307.04,352.76c0.82,2.44,1.71,4.85,2.65,7.16c3.87-4.21,5.3-10.22,5.3-10.22L307.04,352.76z"/>
		<path class="st11" d="M303.64,358.07c-7.33,0.02-16.53-0.3-24.86-1.61c-6.12-9.54-9.69-33.28-6.22-35.6
			c9.32,1.43,18.54,3.39,22.23,3.83c23.28-2.9,28.92,5.33,28.75,14.29C323.34,349.64,314.31,358.04,303.64,358.07z"/>
		<path class="st13" d="M330.95,267.29c7.02,1.12,10.4,6.12,10.4,6.12s-0.77,6.97-5.47,13.85c-8.95-4.73-11.27-9.64-9.12-16.05
			C327.62,268.63,330.95,267.29,330.95,267.29z"/>
		<path class="st19" d="M296.18,277.24c-3,3.03-6.08,6.26-8.89,9.48c-1.42,1.61-2.77,3.26-3.99,4.89c-0.61,0.82-1.17,1.64-1.65,2.43
			c-0.47,0.78-0.89,1.57-1.09,2.11c-0.1,0.25-0.14,0.46-0.15,0.37c0-0.01-0.01-0.03-0.01-0.04l0.01,0.1l0.01,0.2l0.07,0.51
			c0.14,0.75,0.39,1.66,0.72,2.58c0.68,1.85,1.56,3.8,2.52,5.72c1.93,3.85,4.13,7.75,6.32,11.57l0.03,0.06
			c0.64,1.12,0.26,2.55-0.87,3.19c-0.95,0.55-2.12,0.35-2.85-0.41c-3.23-3.36-6.15-6.86-8.83-10.74c-1.32-1.95-2.6-3.96-3.7-6.24
			c-0.55-1.15-1.08-2.35-1.48-3.79c-0.19-0.78-0.36-1.4-0.44-2.55c-0.04-1.22,0.16-2.12,0.36-2.95c0.44-1.62,1.02-2.86,1.64-4.04
			c0.62-1.16,1.28-2.23,1.95-3.26c1.35-2.06,2.8-3.93,4.28-5.76c3-3.64,6.1-6.96,9.52-10.22c1.88-1.79,4.85-1.72,6.64,0.16
			c1.76,1.84,1.72,4.74-0.06,6.54L296.18,277.24z"/>
		<path class="st19" d="M285.7,317.74l2.55,9.59l4.6-8.95c0,0-1.84-4-5.66-4.14L285.7,317.74z"/>
		<path class="st19" d="M293.93,327.97l2.04-3.28c0.54-0.86,0.46-1.97-0.18-2.75l-2.94-3.56l-4.6,8.95l2.5,1.44
			C291.85,329.41,293.26,329.05,293.93,327.97z"/>
		<path class="st13" d="M294.94,267.98c-9.84,1.54-11.59,7.69-11.59,7.69s0.75,5.59,4.44,12.06c11.87-1.95,13.49-9.41,11.34-15.83
			C298.27,269.32,294.94,267.98,294.94,267.98z"/>
	</g>
</g>
</svg>
